<svg xmlns="http://www.w3.org/2000/svg" xmlns:xlink="http://www.w3.org/1999/xlink" version="1.1" width="256" height="256" viewBox="0 0 256 256" xml:space="preserve">

<defs>
</defs>
<g style="stroke: none; stroke-width: 0; stroke-dasharray: none; stroke-linecap: butt; stroke-linejoin: miter; stroke-miterlimit: 10; fill: none; fill-rule: nonzero; opacity: 1;" transform="translate(1.4065934065934016 1.4065934065934016) scale(2.81 2.81)" >
	<path d="M 62.631 4.724 H 27.369 c -3.479 0 -6.693 1.856 -8.433 4.869 L 1.305 40.131 c -1.739 3.013 -1.739 6.725 0 9.737 l 17.631 30.538 c 1.739 3.013 4.954 4.869 8.433 4.869 h 35.263 c 3.479 0 6.693 -1.856 8.433 -4.869 l 17.631 -30.538 c 1.739 -3.013 1.739 -6.725 0 -9.737 L 71.064 9.593 C 69.325 6.58 66.11 4.724 62.631 4.724 z" style="stroke: none; stroke-width: 1; stroke-dasharray: none; stroke-linecap: butt; stroke-linejoin: miter; stroke-miterlimit: 10; fill: rgb(7,201,196); fill-rule: nonzero; opacity: 1;" transform=" matrix(1 0 0 1 0 0) " stroke-linecap="round" />
	<path d="M 22.541 11.516 c -0.915 0 -1.76 -0.303 -2.438 -0.815 c -0.778 -0.586 -1.337 -1.447 -1.534 -2.438 c -0.049 -0.245 -0.075 -0.498 -0.078 -0.757 h -2.615 v 7.145 l -0.003 3.914 c 0 1.046 -0.681 1.933 -1.626 2.245 c -0.274 0.091 -0.57 0.133 -0.878 0.117 c -0.393 -0.022 -0.762 -0.14 -1.083 -0.332 c -0.682 -0.408 -1.144 -1.148 -1.157 -1.994 c -0.02 -1.323 1.05 -2.401 2.372 -2.401 c 0.261 0 0.512 0.043 0.746 0.12 v -1.953 v -0.702 c -0.248 -0.037 -0.499 -0.056 -0.754 -0.056 c -1.447 0 -2.8 0.601 -3.768 1.685 c -0.731 0.819 -1.17 1.864 -1.237 2.959 C 8.4 19.692 8.926 21.06 9.948 22.069 c 0.15 0.148 0.308 0.286 0.472 0.413 c 0.876 0.673 1.946 1.039 3.073 1.039 c 0.255 0 0.507 -0.019 0.754 -0.056 c 1.053 -0.156 2.025 -0.638 2.792 -1.396 c 0.942 -0.931 1.463 -2.168 1.469 -3.484 l -0.014 -5.844 c 0.449 0.347 0.941 0.634 1.469 0.856 c 0.82 0.346 1.69 0.522 2.586 0.521 V 12.22 v -0.704 C 22.549 11.516 22.542 11.516 22.541 11.516 L 22.541 11.516 z" style="stroke: none; stroke-width: 1; stroke-dasharray: none; stroke-linecap: butt; stroke-linejoin: miter; stroke-miterlimit: 10; fill: rgb(255,255,255); fill-rule: nonzero; opacity: 1;" transform=" matrix(2.81 0 0 2.81 1.4065934065934016 1.4065934065934016) " stroke-linecap="round" />
</g>
</svg>