<svg xmlns="http://www.w3.org/2000/svg" xmlns:xlink="http://www.w3.org/1999/xlink" version="1.1" width="256" height="256" viewBox="0 0 256 256" xml:space="preserve">

<defs>
</defs>
<g style="stroke: none; stroke-width: 0; stroke-dasharray: none; stroke-linecap: butt; stroke-linejoin: miter; stroke-miterlimit: 10; fill: none; fill-rule: nonzero; opacity: 1;" transform="translate(1.4065934065934016 1.4065934065934016) scale(2.81 2.81)" >
	<path d="M 62.631 4.724 H 27.369 c -3.479 0 -6.693 1.856 -8.433 4.869 L 1.305 40.131 c -1.739 3.013 -1.739 6.725 0 9.737 l 17.631 30.538 c 1.739 3.013 4.954 4.869 8.433 4.869 h 35.263 c 3.479 0 6.693 -1.856 8.433 -4.869 l 17.631 -30.538 c 1.739 -3.013 1.739 -6.725 0 -9.737 L 71.064 9.593 C 69.325 6.58 66.11 4.724 62.631 4.724 z" style="stroke: none; stroke-width: 1; stroke-dasharray: none; stroke-linecap: butt; stroke-linejoin: miter; stroke-miterlimit: 10; fill: rgb(42,181,64); fill-rule: nonzero; opacity: 1;" transform=" matrix(1 0 0 1 0 0) " stroke-linecap="round" />
	<path d="M 62.868 29.04 c -4.21 -4.215 -9.809 -6.537 -15.774 -6.54 c -12.291 0 -22.294 10.003 -22.299 22.297 c -0.002 3.93 1.025 7.766 2.976 11.148 L 24.608 67.5 l 11.821 -3.101 c 3.257 1.776 6.924 2.713 10.656 2.714 h 0.009 c 12.289 0 22.293 -10.004 22.298 -22.299 C 69.395 38.856 67.078 33.254 62.868 29.04 z M 58.851 53.069 c -0.628 1.757 -3.286 3.059 -4.476 3.237 c -0.407 0.061 -0.911 0.119 -1.487 0.119 c -0.715 0 -1.54 -0.089 -2.428 -0.372 c -0.921 -0.293 -1.954 -0.641 -3.261 -1.206 c -4.747 -2.05 -8.177 -6.258 -9.8 -8.584 l -0.087 -0.122 c -0.737 -0.983 -2.449 -3.566 -2.449 -6.296 c 0 -2.923 1.461 -4.481 2.084 -5.146 l 0.102 -0.109 c 0.817 -0.893 1.776 -0.989 2.15 -0.989 c 0.387 0 0.774 0.004 1.112 0.02 c 0.689 -0.036 1.481 0.166 2.041 1.51 l 0.63 1.528 c 0.411 1.002 0.975 2.374 1.063 2.554 c 0.31 0.618 0.326 1.217 0.047 1.778 l -0.074 0.151 c -0.151 0.308 -0.293 0.598 -0.605 0.962 l -0.27 0.325 c -0.213 0.26 -0.428 0.519 -0.615 0.704 c -0.019 0.02 -0.049 0.049 -0.077 0.079 c 0.436 0.745 1.452 2.32 2.897 3.609 c 1.673 1.492 3.103 2.112 3.872 2.445 c 0.171 0.075 0.31 0.135 0.412 0.186 c 0.056 0.028 0.1 0.047 0.134 0.061 c 0.463 -0.529 1.379 -1.617 1.687 -2.079 c 0.783 -1.179 1.851 -0.793 2.31 -0.625 c 0.642 0.233 3.87 1.837 3.902 1.853 l 0.29 0.142 c 0.482 0.232 0.897 0.433 1.148 0.853 C 59.498 50.318 59.277 51.875 58.851 53.069 z" style="stroke: none; stroke-width: 1; stroke-dasharray: none; stroke-linecap: butt; stroke-linejoin: miter; stroke-miterlimit: 10; fill: rgb(255,255,255); fill-rule: nonzero; opacity: 1;" transform=" matrix(1 0 0 1 0 0) " stroke-linecap="round" />
</g>
</svg>